<?xml version="1.0" encoding="iso-8859-1"?>
<!-- Uploaded to: SVG Repo, www.svgrepo.com, Generator: SVG Repo Mixer Tools -->
<!DOCTYPE svg PUBLIC "-//W3C//DTD SVG 1.1//EN" "http://www.w3.org/Graphics/SVG/1.1/DTD/svg11.dtd">
<svg version="1.1" id="Capa_1" xmlns="http://www.w3.org/2000/svg" xmlns:xlink="http://www.w3.org/1999/xlink" 
	 viewBox="0 0 297.5 297.5" xml:space="preserve">
<g id="XMLID_21_">
	<g>
		<path style="fill:#FCBF31;" d="M227.938,92.76H69.078c1.66-18.34,9.56-34.92,21.55-47.57v33.93c0,5.49,4.45,9.94,9.94,9.94
			c5.5,0,9.95-4.45,9.95-9.94V29.91c5.94-3.23,12.32-5.74,19.04-7.39v56.6c0,3.84,3.12,6.96,6.97,6.96h23.96
			c3.85,0,6.97-3.12,6.97-6.96v-56.6c6.72,1.65,13.1,4.16,19.04,7.39v49.21c0,5.49,4.46,9.94,9.95,9.94s9.94-4.45,9.94-9.94V45.19
			C218.378,57.84,226.278,74.42,227.938,92.76z"/>
		<rect x="50.968" y="112.65" style="fill:#FCBF31;" width="195.08" height="5.63"/>
		<rect x="69.598" y="249.18" style="fill:#0B77A5;" width="9.73" height="28.18"/>
		<path d="M290.038,280.27c2.84,2.85,3.69,7.12,2.16,10.84c-1.54,3.72-5.17,6.14-9.19,6.14H14.498c-4.02,0-7.65-2.42-9.19-6.14
			c-1.54-3.72-0.69-7.99,2.16-10.84l16.68-16.68c7.32-7.32,16.01-12.94,25.56-16.59v-7.76c0-5.5,4.45-9.95,9.94-9.95h29.62
			c4.41,0,8.14,2.87,9.44,6.84l2.63-0.53c5.25-1.05,9.06-5.7,9.06-11.06v-8.58c-29.46-13.9-50.16-43.41-51.4-77.79h-17.98
			c-5.49,0-9.94-4.45-9.94-9.94v-25.52c0-5.49,4.45-9.95,9.94-9.95h8.11c3.33-46.16,38.24-83.71,83.19-91.08
			c1.17-0.89,2.62-1.43,4.21-1.43h23.96c1.59,0,3.05,0.54,4.22,1.43c44.94,7.37,79.85,44.92,83.18,91.08h8.11
			c5.49,0,9.94,4.46,9.94,9.95v25.52c0,5.49-4.45,9.94-9.94,9.94h-17.98c-1.23,34.2-21.71,63.57-50.92,77.57v8.8
			c0,5.36,3.82,10.01,9.07,11.06l2.17,0.44c1.33-3.92,5.04-6.75,9.41-6.75h29.62c5.49,0,9.94,4.45,9.94,9.95v7.57
			c9.74,3.65,18.6,9.33,26.05,16.78L290.038,280.27z M247.308,277.36h11.69c-3.51-3.45-7.45-6.35-11.69-8.69V277.36z
			 M246.048,118.28v-5.63H50.968v5.63H246.048z M69.078,92.76h158.86c-1.66-18.34-9.56-34.92-21.55-47.57v33.93
			c0,5.49-4.45,9.94-9.94,9.94s-9.95-4.45-9.95-9.94V29.91c-5.94-3.23-12.32-5.74-19.04-7.39v56.6c0,3.84-3.12,6.96-6.97,6.96
			h-23.96c-3.85,0-6.97-3.12-6.97-6.96v-56.6c-6.72,1.65-13.1,4.16-19.04,7.39v49.21c0,5.49-4.45,9.94-9.95,9.94
			c-5.49,0-9.94-4.45-9.94-9.94V45.19C78.638,57.84,70.738,74.42,69.078,92.76z M227.418,277.36v-28.18h-9.73v28.18H227.418z
			 M218.108,138.17h-139.2c1.71,36.92,32.27,66.43,69.6,66.43S216.398,175.09,218.108,138.17z M197.798,277.36v-21.15l-5.53-1.1
			c-14.52-2.91-25.06-15.76-25.06-30.57v-2.02c-6.03,1.28-12.29,1.97-18.7,1.97c-6.24,0-12.33-0.65-18.22-1.87v1.92
			c0,14.81-10.53,27.66-25.05,30.57l-6.02,1.2v21.05H197.798z M153.528,72.16V14.17h-10.04v57.99H153.528z M79.328,277.36v-28.18
			h-9.73v28.18H79.328z M49.708,277.36v-8.42c-4.06,2.29-7.83,5.1-11.2,8.42H49.708z"/>
		<rect x="217.688" y="249.18" style="fill:#0B77A5;" width="9.73" height="28.18"/>
		<path style="fill:#E2B68F;" d="M78.908,138.17h139.2c-1.71,36.92-32.27,66.43-69.6,66.43S80.618,175.09,78.908,138.17z"/>
		<path style="fill:#E2B68F;" d="M197.798,256.21v21.15h-98.58v-21.05l6.02-1.2c14.52-2.91,25.05-15.76,25.05-30.57v-1.92
			c5.89,1.22,11.98,1.87,18.22,1.87c6.41,0,12.67-0.69,18.7-1.97v2.02c0,14.81,10.54,27.66,25.06,30.57L197.798,256.21z"/>
	</g>
	<g>
	</g>
</g>
</svg>